C:\Users\r0593348\3dpredictsim\Results\batch_windlass\Pog_s1_tmt_bCst_d00_k1500_WL30_ig24_pas_GRF.mot
nRows=17
nColumns=19

name C:\Users\r0593348\3dpredictsim\Results\batch_windlass\Pog_s1_tmt_bCst_d00_k1500_WL30_ig24_pas_GRF.mot
datacolumns 19
datarows 17
range 0.0000000000 0.1788085913
endheader
time 	ground_force_vx	ground_force_vy	ground_force_vz	ground_force_px	ground_force_py	ground_force_pz	1_ground_force_vx	1_ground_force_vy	1_ground_force_vz	1_ground_force_px	1_ground_force_py	1_ground_force_pz	ground_torque_x	ground_torque_y	ground_torque_z	1_ground_torque_x	1_ground_torque_y	1_ground_torque_z
        0.0000000000	      -70.2656601059	       49.3079570872	       17.3850156258	        0.1672973848	        0.0000000000	        0.0418490512	       97.1583427523	      499.8030001622	       -2.0931569987	       -0.3151571581	        0.0000000000	       -0.0353616360	        0.0000000000	        0.0000000000	        0.0000000000	        0.0000000000	        0.0000000000	        0.0000000000	
        0.0111755370	     -120.4696219408	      106.4513117970	       39.8035860927	        0.1781929445	        0.0000000000	        0.0391281596	       80.0219806204	      411.2591742095	       -6.3021633316	       -0.3108001443	        0.0000000000	       -0.0339573463	        0.0000000000	        0.0000000000	        0.0000000000	        0.0000000000	        0.0000000000	        0.0000000000	
        0.0223510739	      -95.7461140434	      217.5837131262	       59.5054889623	        0.1853861186	        0.0000000000	        0.0375055243	       55.7620112062	      317.6002862815	      -11.2192203084	       -0.3042926282	        0.0000000000	       -0.0314331864	        0.0000000000	        0.0000000000	        0.0000000000	        0.0000000000	        0.0000000000	        0.0000000000	
        0.0335266109	      -53.5418591844	      388.9506127051	       12.7083628569	        0.1895594308	        0.0000000000	        0.0363802305	       27.0710512987	      220.0061156720	       -9.7401601745	       -0.2933968781	        0.0000000000	       -0.0262328073	        0.0000000000	        0.0000000000	        0.0000000000	        0.0000000000	        0.0000000000	        0.0000000000	
        0.0447021478	      -61.0691878328	      579.3468453642	       -5.6236440041	        0.1962656844	        0.0000000000	        0.0379336996	       10.6820946877	      155.7928956770	       -9.4341627714	       -0.2820768441	        0.0000000000	       -0.0199692669	        0.0000000000	        0.0000000000	        0.0000000000	        0.0000000000	        0.0000000000	        0.0000000000	
        0.0558776848	      -88.7333648862	      744.2454093280	      -12.6688805262	        0.2036628067	        0.0000000000	        0.0401708614	        2.4528485290	      123.8979601357	       -8.9667216627	       -0.2824926076	        0.0000000000	       -0.0202207824	        0.0000000000	        0.0000000000	        0.0000000000	        0.0000000000	        0.0000000000	        0.0000000000	
        0.0670532218	     -104.4736586369	      823.2543222192	      -15.4331900498	        0.2090259314	        0.0000000000	        0.0416716233	       -3.2715555888	       81.7221984453	       -8.7847502513	       -0.2823232226	        0.0000000000	       -0.0203431168	        0.0000000000	        0.0000000000	        0.0000000000	        0.0000000000	        0.0000000000	        0.0000000000	
        0.0782287587	     -108.2477320595	      842.1999645414	      -16.4469420499	        0.2133938830	        0.0000000000	        0.0427459954	      -10.0318452992	       33.9856323446	       -5.1556248997	       -0.2830715314	        0.0000000000	       -0.0203340721	        0.0000000000	        0.0000000000	        0.0000000000	        0.0000000000	        0.0000000000	        0.0000000000	
        0.0894042957	     -109.5523954260	      843.4844773288	      -15.9875568610	        0.2171438462	        0.0000000000	        0.0434226999	        0.1163586080	       -0.1174657824	        0.0019369231	        0.0000000000	        0.0000000000	        0.0000000000	        0.0000000000	        0.0000000000	        0.0000000000	        0.0000000000	        0.0000000000	        0.0000000000	
        0.1005798326	      -98.3249735396	      831.2634597927	      -16.0381715195	        0.2205981993	        0.0000000000	        0.0435940599	        0.0000922728	       -0.0000774680	       -0.0000053827	        0.0000000000	        0.0000000000	        0.0000000000	        0.0000000000	        0.0000000000	        0.0000000000	        0.0000000000	        0.0000000000	        0.0000000000	
        0.1117553696	      -85.6549318041	      799.5198441827	      -16.6515422940	        0.2244311488	        0.0000000000	        0.0436601254	        0.0000195823	       -0.0000143511	       -0.0000014249	        0.0000000000	        0.0000000000	        0.0000000000	        0.0000000000	        0.0000000000	        0.0000000000	        0.0000000000	        0.0000000000	        0.0000000000	
        0.1229309066	      -74.3418453263	      764.1431651236	      -16.6559393313	        0.2288515126	        0.0000000000	        0.0436034462	        0.0000850137	       -0.0000561303	       -0.0000067729	        0.0000000000	        0.0000000000	        0.0000000000	        0.0000000000	        0.0000000000	        0.0000000000	        0.0000000000	        0.0000000000	        0.0000000000	
        0.1341064435	      -63.7444428239	      726.7048816019	      -16.4610473634	        0.2332545732	        0.0000000000	        0.0435130305	        0.0026076499	       -0.0015983755	       -0.0002083669	        0.0000000000	        0.0000000000	        0.0000000000	        0.0000000000	        0.0000000000	        0.0000000000	        0.0000000000	        0.0000000000	        0.0000000000	
        0.1452819805	      -53.6563019242	      690.9318319048	      -16.5987588199	        0.2373325358	        0.0000000000	        0.0434780476	       -0.0158725514	        0.0091320834	        0.0012576408	        0.0000000000	        0.0000000000	        0.0000000000	        0.0000000000	        0.0000000000	        0.0000000000	        0.0000000000	        0.0000000000	        0.0000000000	
        0.1564575174	      -44.2645912543	      660.0948005854	      -17.0528959867	        0.2412872554	        0.0000000000	        0.0435055400	       -0.0136411901	        0.0073919789	        0.0010927042	        0.0000000000	        0.0000000000	        0.0000000000	        0.0000000000	        0.0000000000	        0.0000000000	        0.0000000000	        0.0000000000	        0.0000000000	
        0.1676330544	      -36.1178091334	      635.2283271929	      -17.6339640327	        0.2453197959	        0.0000000000	        0.0435747391	       -0.0082282236	        0.0042103924	        0.0006782330	        0.0000000000	        0.0000000000	        0.0000000000	        0.0000000000	        0.0000000000	        0.0000000000	        0.0000000000	        0.0000000000	        0.0000000000	
        0.1788085913	      -29.2612683722	      615.3950241087	      -18.3151470328	        0.2493699656	        0.0000000000	        0.0436644499	       -0.0060000835	        0.0029124017	        0.0005106089	        0.0000000000	        0.0000000000	        0.0000000000	        0.0000000000	        0.0000000000	        0.0000000000	        0.0000000000	        0.0000000000	        0.0000000000	
